<svg width="14" height="12" viewBox="0 0 14 12" fill="none" xmlns="http://www.w3.org/2000/svg">
<path d="M0.3304 5.17408L4.9392 0.565283C5.04292 0.45615 5.16743 0.368877 5.30539 0.308603C5.44336 0.24833 5.59199 0.216275 5.74254 0.214328C5.89308 0.21238 6.04249 0.240579 6.18197 0.297263C6.32145 0.353948 6.44817 0.437971 6.55468 0.544384C6.66119 0.650797 6.74532 0.777448 6.80213 0.916877C6.85894 1.05631 6.88727 1.20569 6.88545 1.35624C6.88363 1.50679 6.85171 1.65545 6.79156 1.79346C6.73141 1.93148 6.64424 2.05607 6.5352 2.15988L3.8108 4.88008H12.8716C13.1709 4.88008 13.4579 4.99897 13.6695 5.21058C13.8811 5.4222 14 5.70921 14 6.00848C14 6.30775 13.8811 6.59477 13.6695 6.80638C13.4579 7.018 13.1709 7.13688 12.8716 7.13688H3.836L6.5352 9.84028C6.738 10.0537 6.84938 10.3379 6.84557 10.6322C6.84177 10.9266 6.72307 11.2078 6.51482 11.4159C6.30656 11.624 6.02524 11.7424 5.73087 11.746C5.43651 11.7495 5.15241 11.6379 4.9392 11.4349L0.3304 6.82608C0.22525 6.72156 0.1419 6.5972 0.0851831 6.46021C0.0284662 6.32323 -0.000487328 6.17634 0 6.02808C-0.000736237 6.01876 -0.000736237 6.0094 0 6.00008C-0.000662804 5.99076 -0.000662804 5.9814 0 5.97208C0.000100136 5.67282 0.118926 5.38583 0.3304 5.17408Z" fill="#FEFEFF"/>
</svg>
