<svg width="16" height="16" viewBox="0 0 16 16" fill="none" xmlns="http://www.w3.org/2000/svg">
<path fill-rule="evenodd" clip-rule="evenodd" d="M3.99944 4.00004C3.68385 4.00004 3.42801 4.25587 3.42801 4.57146V12.5715C3.42801 12.8871 3.68385 13.1429 3.99944 13.1429H11.9994C12.315 13.1429 12.5709 12.8871 12.5709 12.5715V4.57146C12.5709 4.25587 12.315 4.00004 11.9994 4.00004H3.99944ZM2.28516 4.57146C2.28516 3.62469 3.05267 2.85718 3.99944 2.85718H11.9994C12.9462 2.85718 13.7137 3.62469 13.7137 4.57146V12.5715C13.7137 13.5182 12.9462 14.2858 11.9994 14.2858H3.99944C3.05267 14.2858 2.28516 13.5182 2.28516 12.5715V4.57146Z" fill="#9BA6B2"/>
<path fill-rule="evenodd" clip-rule="evenodd" d="M10.2863 1.71436C10.6019 1.71436 10.8577 1.97019 10.8577 2.28578V4.5715C10.8577 4.88709 10.6019 5.14293 10.2863 5.14293C9.97068 5.14293 9.71484 4.88709 9.71484 4.5715V2.28578C9.71484 1.97019 9.97068 1.71436 10.2863 1.71436Z" fill="#9BA6B2"/>
<path fill-rule="evenodd" clip-rule="evenodd" d="M5.71401 1.71436C6.0296 1.71436 6.28543 1.97019 6.28543 2.28578V4.5715C6.28543 4.88709 6.0296 5.14293 5.71401 5.14293C5.39842 5.14293 5.14258 4.88709 5.14258 4.5715V2.28578C5.14258 1.97019 5.39842 1.71436 5.71401 1.71436Z" fill="#9BA6B2"/>
<path fill-rule="evenodd" clip-rule="evenodd" d="M2.28516 6.85707C2.28516 6.54148 2.54099 6.28564 2.85658 6.28564H13.1423C13.4579 6.28564 13.7137 6.54148 13.7137 6.85707C13.7137 7.17266 13.4579 7.4285 13.1423 7.4285H2.85658C2.54099 7.4285 2.28516 7.17266 2.28516 6.85707Z" fill="#9BA6B2"/>
</svg>
