<svg width="16" height="16" viewBox="0 0 16 16" fill="none" xmlns="http://www.w3.org/2000/svg">
<path fill-rule="evenodd" clip-rule="evenodd" d="M7.25493 2.28562C4.42783 2.28562 2.20943 4.55362 2.20943 7.25917C2.20943 9.96471 4.42783 12.2327 7.25493 12.2327C8.62886 12.2327 9.85903 11.6971 10.7607 10.8358C10.774 10.8191 10.788 10.8027 10.8027 10.7868C10.8371 10.7492 10.8737 10.7152 10.9122 10.6849C11.776 9.78666 12.3004 8.57463 12.3004 7.25917C12.3004 4.55362 10.082 2.28562 7.25493 2.28562ZM12.7448 11.4012C13.6117 10.2543 14.129 8.82322 14.129 7.25917C14.129 3.41912 11.0108 0.380859 7.25493 0.380859C3.49903 0.380859 0.380859 3.41912 0.380859 7.25917C0.380859 11.0992 3.49903 14.1375 7.25493 14.1375C8.81519 14.1375 10.2654 13.6132 11.4277 12.7249L14.0734 15.3555C14.4386 15.7187 15.0174 15.7046 15.366 15.3242C15.7147 14.9437 15.7012 14.3408 15.336 13.9777L12.7448 11.4012Z" fill="#9BA6B2"/>
</svg>
