<svg width="20" height="20" viewBox="0 0 20 20" fill="none" xmlns="http://www.w3.org/2000/svg">
<path fill-rule="evenodd" clip-rule="evenodd" d="M9.22895 1.90632C9.74203 1.86503 10.258 1.86503 10.7711 1.90632C10.8197 1.91007 10.9169 1.95132 10.9561 2.08883L11.3464 3.47013C11.5449 4.17015 12.0891 4.67892 12.6927 4.95643C12.9277 5.06394 13.1532 5.18519 13.3693 5.31895C13.9324 5.66646 14.6792 5.84771 15.4354 5.65646L16.9235 5.27769C17.0721 5.24019 17.1598 5.29769 17.1868 5.3352C17.4826 5.72271 17.7405 6.13648 17.9606 6.57149C17.9795 6.61024 17.9903 6.709 17.8809 6.809L16.7804 7.81654C16.2254 8.32406 16.0214 9.01283 16.0647 9.6366C16.0813 9.87887 16.0813 10.1219 16.0647 10.3641C16.0214 10.9879 16.2254 11.6767 16.7804 12.1842L17.8809 13.1917C17.989 13.2917 17.9795 13.3905 17.9606 13.4292C17.7425 13.862 17.4836 14.2761 17.1868 14.6668C17.1598 14.703 17.0707 14.7593 16.9235 14.723L15.434 14.3443C14.6792 14.153 13.9324 14.3343 13.3693 14.6818C13.1532 14.8155 12.9277 14.9368 12.6941 15.0443C12.0877 15.3218 11.5449 15.8293 11.3464 16.5306L10.9561 17.9119C10.9169 18.0494 10.8197 18.0907 10.7711 18.0944C10.258 18.1356 9.74204 18.1356 9.22895 18.0944C9.18033 18.0907 9.0831 18.0482 9.04394 17.9119L8.65368 16.5306C8.45517 15.8306 7.91096 15.3218 7.30733 15.0443C7.07365 14.937 6.84766 14.8159 6.63078 14.6818C6.06767 14.3343 5.32089 14.153 4.56467 14.3443L3.07653 14.723C2.92799 14.7605 2.84021 14.703 2.81321 14.6655C2.51651 14.2753 2.25759 13.8616 2.03943 13.4292C2.02052 13.3905 2.00972 13.2917 2.1191 13.1917L3.21968 12.1842C3.77469 11.6767 3.9786 10.9879 3.93539 10.3641C3.91875 10.1219 3.91875 9.87887 3.93539 9.6366C3.9786 9.01283 3.77469 8.32406 3.21968 7.81654L2.1191 6.809C2.01107 6.709 2.02052 6.61024 2.03943 6.57149C2.25719 6.13855 2.51614 5.7244 2.81321 5.33395C2.84021 5.29769 2.92934 5.24019 3.07653 5.27769L4.56602 5.65646C5.32089 5.84771 6.06767 5.66646 6.63078 5.31895C6.84685 5.18519 7.07236 5.06394 7.30598 4.95643C7.91231 4.67892 8.45517 4.1714 8.65368 3.47013L9.04394 2.08883C9.0831 1.95132 9.18033 1.91007 9.22895 1.90632ZM10 0C9.68133 0 9.36534 0.0125005 9.0534 0.0375014C8.05005 0.118754 7.31138 0.80628 7.08452 1.61381L6.6929 2.99636C6.66994 3.07886 6.58757 3.19387 6.40797 3.27637C6.0964 3.41911 5.79508 3.58028 5.5059 3.75889C5.3398 3.86139 5.19126 3.87139 5.10078 3.84764L3.61264 3.47013C2.74298 3.24887 1.73289 3.49513 1.15492 4.25766C0.79027 4.73787 0.472142 5.24695 0.204236 5.77896C-0.221139 6.62274 0.0543417 7.55653 0.69443 8.1428L1.79501 9.15034C1.86253 9.21034 1.92734 9.33409 1.91384 9.51785C1.89177 9.8392 1.89177 10.1615 1.91384 10.4829C1.92734 10.6666 1.86253 10.7904 1.79501 10.8504L0.69443 11.8579C0.0543417 12.4442 -0.221139 13.378 0.204236 14.2218C0.474316 14.7568 0.79301 15.2656 1.15492 15.7443C1.73289 16.5056 2.74298 16.7519 3.61264 16.5319L5.10213 16.1531C5.19126 16.1293 5.3398 16.1393 5.5059 16.2418C5.79353 16.4206 6.09467 16.5819 6.40797 16.7244C6.58757 16.8069 6.66994 16.9219 6.69425 17.0044L7.08452 18.3869C7.31273 19.1945 8.05005 19.882 9.0534 19.962C9.68329 20.0127 10.3168 20.0127 10.9467 19.962C11.95 19.882 12.6887 19.1945 12.9155 18.3869L13.3071 17.0044C13.3301 16.9219 13.4125 16.8069 13.5921 16.7244C13.9037 16.5817 14.205 16.4205 14.4941 16.2418C14.6602 16.1393 14.8088 16.1293 14.8993 16.1531L16.3874 16.5306C17.2571 16.7519 18.2672 16.5056 18.8451 15.7431C19.207 15.2656 19.5271 14.7568 19.7958 14.2218C20.2212 13.378 19.9457 12.4442 19.3043 11.8579L18.205 10.8504C18.1375 10.7904 18.0727 10.6666 18.0862 10.4829C18.1082 10.1615 18.1082 9.83921 18.0862 9.51785C18.0727 9.33409 18.1389 9.21034 18.205 9.15034L19.3043 8.1428C19.9457 7.55653 20.2212 6.62274 19.7958 5.77896C19.5279 5.24656 19.2098 4.73707 18.8451 4.25641C18.2672 3.49513 17.2571 3.24887 16.3874 3.46888L14.8979 3.84764C14.8088 3.87139 14.6602 3.86139 14.4941 3.75889C14.205 3.58027 13.9037 3.4191 13.5921 3.27637C13.4125 3.19387 13.3301 3.07886 13.3058 2.99636L12.9169 1.61256C12.6873 0.80628 11.95 0.118754 10.9467 0.0387514C10.6319 0.0131733 10.316 0.000244005 10 0ZM12.0256 10.0004C12.0256 10.4977 11.8122 10.9746 11.4323 11.3262C11.0525 11.6779 10.5372 11.8754 10 11.8754C9.4628 11.8754 8.94758 11.6779 8.56771 11.3262C8.18784 10.9746 7.97443 10.4977 7.97443 10.0004C7.97443 9.50307 8.18784 9.02614 8.56771 8.67449C8.94758 8.32285 9.4628 8.1253 10 8.1253C10.5372 8.1253 11.0525 8.32285 11.4323 8.67449C11.8122 9.02614 12.0256 9.50307 12.0256 10.0004ZM14.0512 10.0004C14.0512 10.995 13.6244 11.9488 12.8647 12.6521C12.1049 13.3554 11.0745 13.7505 10 13.7505C8.92558 13.7505 7.89514 13.3554 7.1354 12.6521C6.37565 11.9488 5.94883 10.995 5.94883 10.0004C5.94883 9.00577 6.37565 8.05191 7.1354 7.34862C7.89514 6.64533 8.92558 6.25023 10 6.25023C11.0745 6.25023 12.1049 6.64533 12.8647 7.34862C13.6244 8.05191 14.0512 9.00577 14.0512 10.0004Z" fill="#3E3E3E"/>
</svg>
