<svg width="31" height="31" viewBox="0 0 31 31" fill="none" xmlns="http://www.w3.org/2000/svg">
<path fill-rule="evenodd" clip-rule="evenodd" d="M10.9993 31C9.34099 30.9987 7.99886 29.6108 8.00008 27.9006C7.99886 26.1904 9.34221 24.8025 11.0006 24.8013H14.0011V27.8994C14.0023 29.6096 12.6589 30.9975 10.9993 31C11.0006 31 11.0006 31 10.9993 31V31ZM10.9993 22.7333H3.00049C1.34213 22.7321 -0.00122234 21.3442 3.34966e-06 19.634C-0.00244803 17.9238 1.34091 16.5359 2.99927 16.5333H10.9993C12.6577 16.5346 14.0011 17.9225 13.9998 19.6327C14.0011 21.3442 12.6577 22.7321 10.9993 22.7333Z" fill="#36C5F0"/>
<path fill-rule="evenodd" clip-rule="evenodd" d="M29.9999 19.634C30.0011 21.3442 28.6578 22.7321 26.9994 22.7333C25.341 22.7321 23.9977 21.3442 23.9989 19.634V16.5333H26.9994C28.6578 16.5346 30.0011 17.9225 29.9999 19.634ZM21.9998 19.634V27.9006C22.001 29.6096 20.6589 30.9975 19.0005 31C17.3421 30.9987 15.9988 29.6108 16 27.9006V19.634C15.9976 17.9238 17.3409 16.5359 18.9993 16.5333C20.6576 16.5346 22.001 17.9225 21.9998 19.634Z" fill="#2EB67D"/>
<path fill-rule="evenodd" clip-rule="evenodd" d="M19.0005 8.7738e-05C20.6588 0.00135231 22.0022 1.38924 22.001 3.09945C22.0022 4.80967 20.6588 6.19756 19.0005 6.19882H16V3.09945C15.9988 1.39051 17.3421 0.00261593 19.0005 8.7738e-05ZM19.0005 8.26802H27.0006C28.6589 8.26928 30.0023 9.65717 30.0011 11.3674C30.0035 13.0776 28.6602 14.4655 27.0018 14.468H19.0017C17.3434 14.4668 16 13.0789 16.0012 11.3687C16 9.65717 17.3421 8.26928 19.0005 8.26802Z" fill="#ECB22E"/>
<path fill-rule="evenodd" clip-rule="evenodd" d="M8.38081e-07 11.3674C-0.00122485 9.65719 1.34213 8.2693 3.00049 8.26803C4.65885 8.2693 6.00221 9.65719 6.00098 11.3674V14.4668H3.00049C1.34213 14.4655 -0.00122485 13.0776 8.38081e-07 11.3674ZM8.00008 11.3674V3.10071C7.99763 1.39049 9.34099 0.00259113 10.9993 6.29425e-05C12.6577 0.00132656 14.0011 1.38922 13.9998 3.09944V11.3649C14.0023 13.0751 12.6589 14.463 11.0006 14.4655C9.34099 14.4655 7.99886 13.0776 8.00008 11.3674C8.00008 11.3674 8.00008 11.3662 8.00008 11.3674Z" fill="#E01E5A"/>
</svg>
